<?xml version="1.0" encoding="UTF-8" standalone="no"?>
<!-- Created with Inkscape (http://www.inkscape.org/) -->

<svg
   width="512"
   height="512"
   viewBox="0 0 135.46666 135.46667"
   version="1.1"
   id="svg1"
   inkscape:export-filename="logo.svg"
   inkscape:export-xdpi="96"
   inkscape:export-ydpi="96"
   inkscape:version="1.4.2 (ebf0e940d0, 2025-05-08)"
   sodipodi:docname="drawing.svg"
   xmlns:inkscape="http://www.inkscape.org/namespaces/inkscape"
   xmlns:sodipodi="http://sodipodi.sourceforge.net/DTD/sodipodi-0.dtd"
   xmlns="http://www.w3.org/2000/svg"
   xmlns:svg="http://www.w3.org/2000/svg">
  <sodipodi:namedview
     id="namedview1"
     pagecolor="#ffffff"
     bordercolor="#000000"
     borderopacity="0.25"
     inkscape:showpageshadow="2"
     inkscape:pageopacity="0.0"
     inkscape:pagecheckerboard="0"
     inkscape:deskcolor="#d1d1d1"
     inkscape:document-units="mm"
     inkscape:zoom="1"
     inkscape:cx="529"
     inkscape:cy="337"
     inkscape:window-width="1920"
     inkscape:window-height="1011"
     inkscape:window-x="0"
     inkscape:window-y="0"
     inkscape:window-maximized="1"
     inkscape:current-layer="layer1" />
  <defs
     id="defs1" />
  <g
     inkscape:label="Layer 1"
     inkscape:groupmode="layer"
     id="layer1">
    <path
       style="fill:#225500;stroke-width:0.707107"
       d="m 119.92334,294.26087 c -8.64069,-15.11712 -16.56553,-29.5185 -17.61076,-32.00306 -1.65449,-3.9328 -1.90061,-5.47819 -1.90192,-11.94201 -10e-4,-7.08825 0.1156,-7.66983 2.58313,-12.83696 1.42154,-2.97678 5.65454,-10.55856 9.40665,-16.8484 8.0653,-13.52023 9.20581,-15.79152 8.653,-17.23212 -0.2288,-0.59625 -2.92818,-2.53312 -5.99862,-4.30414 -9.18092,-5.29555 -10.03578,-7.52557 -3.61522,-9.43075 7.50667,-2.22745 54.29439,-13.73444 57.28454,-14.08858 2.92915,-0.34692 3.42951,-0.19987 4.38611,1.28901 1.96959,3.06554 19.00555,60.25313 18.41084,61.80291 -0.93189,2.42848 -3.86013,2.06085 -10.54,-1.32325 -3.57306,-1.81015 -6.98172,-3.29118 -7.57481,-3.29118 -0.5931,0 -2.03653,1.51144 -3.20764,3.35876 -4.77174,7.52696 -29.52118,51.0834 -31.64088,55.68466 -3.7394,8.11713 -4.63912,14.95401 -3.1581,23.99809 0.37819,2.30951 0.58556,4.30116 0.46082,4.42591 -0.12474,0.12474 -7.29646,-12.14176 -15.93714,-27.25889 z"
       id="path36"
       transform="scale(0.26458333)" />
    <path
       style="fill:#225500;stroke-width:0.707107"
       d="m 329.51176,167.77931 c -6.2762,-0.8882 -56.91718,-10.24417 -58.87207,-10.87667 -1.26694,-0.40991 -2.64654,-1.38623 -3.06579,-2.1696 -1.00247,-1.87314 0.62486,-3.6121 7.55465,-8.07284 3.42681,-2.20585 5.23929,-3.82742 5.23929,-4.68742 0,-1.9065 -1.33845,-4.33342 -16.34881,-29.64425 -17.2677,-29.117216 -21.45586,-35.521511 -25.96559,-39.705063 -3.4419,-3.192957 -11.25159,-7.567856 -13.51168,-7.569086 -0.6526,-3.55e-4 -0.7794,-0.246466 -0.34882,-0.677046 1.92453,-1.924532 48.72748,-3.029562 60.97062,-1.439531 10.92841,1.419285 20.3994,6.250044 25.81192,13.16559 1.63897,2.094087 7.4347,10.85801 12.87942,19.475387 5.44473,8.617379 10.42743,15.993869 11.07268,16.392209 0.92178,0.56904 2.52043,-0.12982 7.45999,-3.2612 8.30131,-5.26254 9.63329,-5.75141 11.13856,-4.08811 1.10246,1.2182 0.6592,2.92502 -7.37983,28.41702 -10.95969,34.75346 -10.52847,33.56791 -12.54342,34.48598 -0.92553,0.4217 -1.74737,0.71906 -1.82629,0.66079 -0.0789,-0.0583 -1.09811,-0.24104 -2.26483,-0.40616 z"
       id="path37"
       transform="scale(0.26458333)" />
    <path
       style="fill:#225500;stroke-width:0.707107"
       d="M 301.39781,348.78042 C 286.6831,333.69869 275.41698,321.65003 273.19325,318.61677 l -2.02579,-2.76326 1.4243,-2.414 c 2.77123,-4.69689 36.28984,-45.58092 38.01302,-46.36606 2.80018,-1.27584 4.41129,1.30091 4.41129,7.05525 0,8.0084 -3.13702,7.30347 32.37501,7.27513 33.58266,-0.0268 38.46237,-0.43236 45.83969,-3.80982 2.21018,-1.01185 5.59368,-2.97138 7.51889,-4.35451 1.92522,-1.38313 3.64782,-2.36734 3.82802,-2.18715 0.32824,0.32824 -16.42163,29.85071 -27.19876,47.93917 -6.59709,11.07263 -10.49658,15.09243 -18.21271,18.77467 -6.71802,3.20593 -10.83465,3.75748 -28.08096,3.76229 l -14.68997,0.004 -0.68961,1.8138 c -0.37928,0.99759 -0.6896,4.10877 -0.6896,6.91373 0,5.23004 -1.15754,8.24304 -3.16683,8.24304 -0.53092,0 -5.23407,-4.37523 -10.45143,-9.72272 z"
       id="path38"
       transform="scale(0.26458333)" />
    <path
       style="fill:#338000;stroke-width:0.707107"
       d="m 205.76035,168.36888 c -3.10166,-1.39016 -23.05455,-12.6967 -37.25254,-21.10957 -4.93679,-2.92525 -9.16984,-5.82382 -9.40678,-6.44127 -0.60829,-1.58516 1.86225,-6.0784 16.58072,-30.15583 14.96201,-24.475851 18.77257,-30.241413 22.05781,-33.374574 9.4782,-9.039451 28.92929,-7.185419 37.67091,3.590702 2.91687,3.59574 13.84467,21.771352 13.84467,23.027082 0,2.02671 -37.23088,63.52296 -39.24443,64.82215 -1.18499,0.76458 -1.87391,0.70644 -4.25036,-0.35869 z"
       id="path39"
       transform="scale(0.26458333)" />
    <path
       style="fill:#338000;stroke-width:0.707107"
       d="m 360.74313,268.5238 c -12.81788,-20.76985 -37.24178,-63.19581 -37.24178,-64.69147 0,-2.03307 2.02856,-3.59584 15.77453,-12.15241 23.26855,-14.48418 29.39131,-17.9073 31.21236,-17.45025 1.31017,0.32883 4.85791,5.93213 16.49675,26.05494 17.79166,30.76061 18.97087,32.95085 20.41484,37.91793 2.57792,8.8677 -0.49268,19.20198 -7.7428,26.05883 -7.16696,6.77822 -14.83629,9.3613 -27.84541,9.3785 l -7.90472,0.0105 z"
       id="path40"
       transform="scale(0.26458333)" />
    <path
       style="fill:#338000;stroke-width:0.707107"
       d="m 245.19171,447.92737 c -0.85232,-0.59698 -3.54211,-3.99447 -5.97732,-7.54997 -2.4352,-3.55549 -6.97937,-9.167 -10.09815,-12.47001 -10.75359,-11.38884 -20.03928,-17.68404 -40.25773,-27.29257 -32.35475,-15.37613 -48.58183,-26.37458 -66.72019,-45.22185 -14.24644,-14.80322 -24.669036,-29.33503 -34.791682,-48.50863 -7.383346,-13.98501 -8.386416,-14.96701 -16.874317,-16.51989 -9.608468,-1.75789 -13.664223,-3.51172 -18.522612,-8.00973 -4.604175,-4.26266 -9.485263,-12.81197 -9.054382,-15.85892 0.225632,-1.59553 0.48764,-1.6787 4.970799,-1.57776 10.012158,0.22539 17.404993,4.2753 23.148536,12.68111 2.103423,3.07841 3.929662,5.7297 4.058308,5.89174 0.128646,0.16205 0.426205,0.10233 0.661242,-0.13271 0.235037,-0.23504 -0.718151,-4.91656 -2.118196,-10.4034 -2.483801,-9.73413 -4.451806,-22.24971 -4.835836,-30.75363 l -0.190822,-4.22557 -6.234729,-1.59194 c -11.397074,-2.91006 -18.884459,-8.1421 -22.641666,-15.82156 -2.234761,-4.56768 -4.160102,-13.14912 -3.862023,-17.21342 0.205512,-2.80217 0.281635,-2.88159 2.686379,-2.80263 3.910415,0.12838 13.416627,4.20337 17.729924,7.6002 4.750468,3.74112 7.84808,8.23137 9.870108,14.30757 0.828656,2.49011 1.761268,4.52748 2.072469,4.52748 0.311202,0 0.789743,-2.78424 1.063425,-6.18719 0.273681,-3.40295 1.106812,-9.79853 1.851401,-14.2124 1.471241,-8.72141 1.718746,-14.36682 0.712313,-16.24735 -0.352817,-0.65925 -3.846145,-4.40329 -7.76295,-8.32009 -9.764207,-9.76421 -12.086912,-15.19942 -12.097565,-28.30872 -0.0057,-6.98939 0.656474,-7.4116 7.022137,-4.47747 5.493074,2.53192 12.183521,8.80048 14.738952,13.80954 1.819518,3.56654 3.674939,12.38399 3.740358,17.77515 0.02733,2.25262 0.296069,4.72641 0.597186,5.49732 0.432041,1.10609 0.742726,0.58423 1.473386,-2.47487 1.684219,-7.05142 4.893193,-15.68376 7.120614,-19.1549 3.443598,-5.36638 10.157016,-11.11084 16.595473,-14.20023 3.14815,-1.51059 6.65735,-2.81443 7.79822,-2.89742 l 2.07431,-0.15089 0.20503,6.23651 c 0.52368,15.9294 -5.81218,25.30505 -22.832442,33.78689 -9.862241,4.91473 -11.910876,6.80802 -13.04317,12.05412 -1.724646,7.99056 -3.379611,24.52049 -2.945164,29.41654 0.175162,1.974 1.261339,0.61044 3.52596,-4.4264 3.710613,-8.25293 9.921311,-13.61581 16.19186,-13.98151 l 2.634475,-0.15364 -0.107465,3.27686 c -0.230423,7.02616 -4.220421,12.37393 -13.292847,17.81632 -7.058112,4.23404 -7.830094,5.83179 -7.745198,16.02992 0.164061,19.70769 10.331281,47.76551 25.626951,70.72105 8.89822,13.35432 14.35661,19.96007 26.59624,32.18678 18.38291,18.36353 34.64936,29.25693 62.26041,41.69487 28.0952,12.65602 35.53523,17.92108 47.21354,33.41143 2.71212,3.59741 5.21055,6.54074 5.55207,6.54074 1.75593,0 -1.32068,-15.97092 -4.26506,-22.14032 -2.33666,-4.89605 -8.9159,-11.8008 -11.24444,-11.8008 -3.33503,0 -15.83615,-3.76214 -20.99265,-6.31761 -3.11127,-1.54189 -7.31834,-4.26814 -9.34903,-6.05832 -6.03491,-5.32013 -15.08319,-20.02029 -14.0232,-22.78259 0.36849,-0.96026 1.48559,-1.05008 8.0794,-0.6496 8.68195,0.52731 13.43562,1.72997 19.52443,4.93964 7.23022,3.81135 12.03358,9.29788 19.15149,21.87536 6.79989,12.01553 9.05972,15.31188 9.91535,14.46324 1.383,-1.37169 -4.94057,-26.59507 -9.62187,-38.37954 -2.7613,-6.95118 -8.21282,-17.91959 -9.77564,-19.66851 -0.64516,-0.72197 -2.35357,-1.91521 -3.79649,-2.65165 -2.39104,-1.22033 -4.42712,-1.34102 -22.98097,-1.3621 -11.19662,-0.0127 -22.5231,-0.30228 -25.16997,-0.64346 -6.67643,-0.86058 -11.97172,-3.63817 -17.50351,-9.18128 -6.44666,-6.45985 -8.0896,-10.87461 -8.0896,-21.73764 v -7.89743 l 4.05964,-8.01247 c 2.2328,-4.40686 4.83011,-8.96706 5.7718,-10.13379 l 1.71216,-2.12132 19.16582,0.11668 19.16583,0.11669 3.08801,1.80969 c 4.56129,2.6731 9.17402,8.21788 13.98826,16.81472 2.35307,4.20191 4.51145,7.49575 4.7964,7.31965 0.28495,-0.17612 0.71254,-3.2743 0.95021,-6.88485 0.41571,-6.31541 0.32321,-6.90025 -2.43627,-15.40349 -3.62753,-11.17813 -4.85448,-17.59913 -4.85448,-25.40494 0,-14.92874 6.51799,-28.74982 19.20061,-40.71396 9.38223,-8.85072 20.63843,-15.11226 45.1461,-25.11363 15.29741,-6.24274 20.21382,-8.80627 26.46581,-13.79985 4.34788,-3.47274 5.018,-3.794 5.95639,-2.85561 3.31955,3.31955 4.93598,34.83196 2.52629,49.2503 -2.5501,15.25853 -8.45018,27.49249 -18.33148,38.01078 -9.95179,10.59333 -20.38058,17.21626 -37.57221,23.86067 -23.22367,8.97575 -30.66359,15.62129 -30.66359,27.38956 0,6.62777 1.8921,12.98908 9.71513,32.66274 3.86614,9.72271 7.75541,19.6664 8.64282,22.09708 0.88741,2.43068 1.86163,4.41942 2.16493,4.41942 0.30331,0 0.76245,-1.98874 1.02031,-4.41942 1.44841,-13.65283 3.41335,-18.52238 10.22292,-25.33452 4.90674,-4.90861 15.15971,-10.81859 18.0509,-10.40484 1.94336,0.2781 2.19458,3.67046 0.84918,11.46678 -1.9523,11.31315 -6.38311,18.30356 -17.02861,26.86578 -7.54596,6.06925 -8.88677,8.0378 -9.38911,13.78492 -0.29455,3.36989 3.13666,29.55308 4.47916,34.18002 0.7013,2.41702 1.48426,1.15897 3.08051,-4.94975 2.11245,-8.08419 6.00255,-18.86158 8.0988,-22.43747 4.40884,-7.52083 14.80329,-14.5015 25.26593,-16.96802 5.7733,-1.36103 13.31598,-1.44009 13.31598,-0.13956 0,1.54688 -3.3035,10.77022 -5.23464,14.61502 -5.69351,11.33553 -11.11404,15.31989 -27.36049,20.11134 -7.36523,2.17217 -9.17145,3.50589 -11.67338,8.61964 -1.71763,3.5107 -1.96572,4.94559 -2.2589,13.06454 -0.20371,5.64137 -0.0679,9.12068 0.35588,9.12068 0.37686,0 2.39847,-2.89435 4.49244,-6.43189 5.1652,-8.72603 10.4675,-14.28764 21.44748,-22.49639 12.43773,-9.29859 19.11385,-13.17647 32.962,-19.14625 32.18872,-13.87621 47.56279,-23.70043 67.44074,-43.09543 27.92307,-27.24466 44.78551,-57.32803 52.48357,-93.63311 3.33386,-15.72291 3.04538,-48.77326 -0.49351,-56.54027 -0.58311,-1.27978 -3.16993,-3.1195 -8.34362,-5.9339 -12.79164,-6.95842 -21.32874,-16.88534 -24.50963,-28.49975 -1.25175,-4.57053 -2.13697,-17.74122 -1.44156,-21.44808 0.61662,-3.28689 1.47816,-3.3083 10.32915,-0.2567 17.73305,6.1139 28.27608,19.65603 28.27608,36.31958 0,2.81596 -0.34509,6.72901 -0.76686,8.69567 -0.6931,3.23182 -0.58302,4.05686 1.14449,8.57769 1.05123,2.75106 2.15838,4.73737 2.46031,4.41401 0.30194,-0.32336 1.21778,-3.26957 2.03521,-6.54713 1.87895,-7.53385 3.64482,-11.17349 7.48003,-15.41709 5.02455,-5.55958 14.94139,-10.63288 23.20713,-11.87241 l 3.33056,-0.49945 v 6.29569 c 0,11.23377 -2.97923,18.79979 -10.25909,26.05383 -4.57713,4.5609 -12.46958,9.12828 -19.61617,11.35196 l -4.06586,1.26509 -0.004,14.54333 c -0.003,9.28181 -0.38638,17.07924 -1.06066,21.5528 -0.58106,3.8552 -1.05648,7.27583 -1.05648,7.60139 0,1.6938 1.35213,0.0216 3.88886,-4.80939 3.0567,-5.82123 8.29363,-11.24786 13.33831,-13.82146 4.42036,-2.2551 11.94285,-4.65105 16.3197,-5.1979 l 3.92979,-0.491 v 2.60846 c 0,3.54305 -3.15212,12.71476 -5.78554,16.83417 -4.82414,7.54629 -13.31693,12.64914 -26.60967,15.98825 l -8.00002,2.0096 -3.0697,9.16875 c -13.55376,40.4833 -42.05598,78.30365 -76.35239,101.31403 -9.97405,6.69186 -18.40532,11.26764 -33.34763,18.09829 -7.04234,3.21929 -15.6487,7.28183 -19.12526,9.02786 -13.78137,6.92143 -25.72242,16.48529 -34.22224,27.40941 -6.46747,8.31209 -9.11961,11.1957 -11.36497,12.35682 -2.69304,1.39263 -11.14295,1.34735 -13.16729,-0.0706 z"
       id="path41"
       transform="scale(0.26458333)" />
    <path
       style="fill:#338000;stroke-width:0.707107;fill-opacity:1"
       d="m 249.96225,448.4714 c -4.32366,-0.5089 -5.02187,-1.07851 -10.82555,-8.8317 -14.86369,-19.85656 -22.72413,-25.85353 -54.81344,-41.81881 -18.75179,-9.3295 -23.7507,-12.12798 -33.70952,-18.87114 -13.82101,-9.35827 -28.80327,-23.32763 -40.31169,-37.58632 -6.78091,-8.40141 -16.140391,-22.746 -22.267256,-34.12739 -2.916816,-5.41834 -6.576093,-11.17252 -8.131728,-12.78708 -2.638862,-2.73879 -3.373428,-3.06117 -10.960155,-4.81009 -9.452799,-2.1791 -14.076838,-4.54795 -18.363714,-9.40755 -3.539927,-4.01286 -7.09213,-10.71465 -7.09213,-13.38041 v -1.89 l 5.126524,0.3932 c 9.974882,0.76505 16.42093,4.61726 22.885503,13.67655 5.189442,7.27235 5.452275,6.55958 2.421539,-6.56687 -2.487517,-10.77371 -4.032151,-20.22023 -4.690818,-28.68763 l -0.481209,-6.18609 -2.908051,-0.74721 c -10.103992,-2.59615 -15.544234,-5.19144 -20.396634,-9.7303 -5.601456,-5.2395 -8.992993,-13.76672 -9.01747,-22.6723 l -0.01045,-3.80268 2.964247,0.474 c 4.246999,0.67912 11.965891,4.07636 16.014476,7.0483 4.514196,3.31372 6.899785,6.51434 9.760663,13.09535 2.180901,5.01682 3.771085,7.06767 3.800192,4.90109 0.007,-0.51855 0.798945,-6.67038 1.759953,-13.67073 0.961007,-7.00036 1.750803,-14.88448 1.755101,-17.52027 l 0.0078,-4.79235 -7.414096,-7.82742 c -5.228878,-5.52038 -8.094536,-9.20935 -9.722718,-12.51607 -2.138358,-4.34285 -2.32714,-5.30211 -2.559691,-13.00654 -0.209574,-6.94318 -0.07368,-8.38595 0.822219,-8.72974 1.585685,-0.60849 8.301311,2.92654 12.443739,6.55023 7.16541,6.26813 9.46256,11.48615 10.944845,24.86143 0.458661,4.13868 1.100316,7.52488 1.4259,7.52488 0.325584,0 1.520582,-3.13558 2.65555,-6.96796 2.911598,-9.83141 5.612165,-15.38796 9.497624,-19.54183 3.805707,-4.06861 10.891075,-8.92846 16.332395,-11.20236 6.20028,-2.59108 6.06746,-2.74732 5.76036,6.77623 -0.23263,7.21383 -0.52044,8.8522 -2.18449,12.43511 -3.69759,7.96138 -8.70114,12.48485 -20.932488,18.92406 -7.609935,4.00626 -10.944405,6.8813 -11.952196,10.30539 -1.024753,3.48172 -2.749647,16.32202 -3.379455,25.15703 -0.63144,8.85792 0.386618,9.11488 4.659504,1.17605 4.52279,-8.40314 10.6329,-13.35236 16.505685,-13.3697 1.185397,-0.004 1.289393,0.389 0.922926,3.48323 -0.783372,6.61436 -3.794786,10.56569 -12.813873,16.81332 -7.610656,5.272 -7.835166,5.74249 -7.800283,16.34687 0.08353,25.392 14.368109,59.09806 36.76147,86.74277 6.58735,8.13212 25.06438,26.28185 32.85907,32.27702 12.56938,9.66754 24.52156,16.71769 42.22946,24.9096 30.37907,14.05376 37.06595,18.70999 49.81595,34.68796 5.95253,7.45956 6.58497,7.60464 6.02699,1.38253 -0.99251,-11.06772 -4.34536,-19.57563 -9.99492,-25.36226 -2.80396,-2.87199 -4.37774,-3.90805 -6.47014,-4.25949 -5.46464,-0.91782 -17.00138,-4.77273 -21.80584,-7.28623 -7.70186,-4.02932 -14.59332,-11.65419 -19.75208,-21.85417 -2.89396,-5.72199 -2.80088,-5.8591 3.96798,-5.84486 10.50185,0.0221 19.79019,3.01071 26.75742,8.60945 3.48213,2.79818 8.16042,8.88681 12.08235,15.72476 5.95751,10.38703 10.13986,16.66571 11.10136,16.66571 2.12996,0 -0.74691,-14.34315 -6.31131,-31.46625 -1.51658,-4.66691 -4.91358,-12.78096 -7.54888,-18.03122 -6.69955,-13.34739 -4.44423,-12.44592 -32.62845,-13.04193 -24.24753,-0.51276 -28.32132,-0.97557 -33.65306,-3.8232 -5.1704,-2.76146 -11.38075,-9.15025 -13.6156,-14.00683 -1.65414,-3.59463 -1.93427,-5.22947 -2.16155,-12.61511 l -0.26112,-8.48528 4.67409,-8.81391 c 2.57074,-4.84765 5.18816,-9.38197 5.8165,-10.07627 1.04209,-1.1515 2.79485,-1.26237 19.95738,-1.26237 h 18.81495 l 3.74096,2.51931 c 4.28183,2.88356 7.8292,7.22156 13.60091,16.63231 2.22847,3.6335 4.37593,6.71442 4.77213,6.84649 0.91296,0.30432 1.87544,-9.52025 1.3229,-13.50345 -0.22497,-1.62179 -1.39531,-6.13069 -2.60075,-10.01978 -3.33062,-10.74549 -4.29864,-16.25992 -4.28242,-24.39519 0.0303,-15.22017 6.24901,-28.47512 18.92059,-40.32876 8.97523,-8.39589 20.06043,-14.61109 44.05632,-24.70132 15.49993,-6.51769 21.1057,-9.39034 26.82043,-13.744 5.76672,-4.39327 5.61447,-4.35444 6.70389,-1.7102 1.69772,4.12066 2.66807,14.67584 2.65364,28.86549 -0.0165,16.18565 -1.38079,24.59588 -5.68643,35.05283 -8.37356,20.33655 -23.87095,33.88694 -51.71486,45.21769 -17.0885,6.95396 -25.3903,12.50761 -28.30984,18.93838 -1.99754,4.39993 -1.85131,12.86199 0.35234,20.38982 2.48378,8.48472 17.57544,46.76069 18.56744,47.09136 0.48855,0.16285 0.98076,-0.69241 1.18876,-2.06557 2.4788,-16.36475 4.06962,-20.47557 10.35677,-26.76272 4.84404,-4.84403 13.15524,-9.97427 16.39957,-10.12294 2.28827,-0.10487 2.31725,-0.0663 2.53525,3.3751 0.29214,4.61175 -1.67726,13.24657 -4.13368,18.12411 -2.61034,5.18316 -5.28254,8.28035 -13.68299,15.85915 -3.89282,3.51208 -7.41728,7.3296 -7.95495,8.61644 -1.32458,3.17014 -1.21303,8.09723 0.47169,20.8352 2.99307,22.63031 3.6058,23.87093 6.67601,13.51732 5.1983,-17.53012 7.97166,-23.29843 13.79285,-28.68783 4.59756,-4.25652 13.23928,-8.87347 19.30869,-10.31589 3.68829,-0.87654 11.63588,-1.18923 12.33961,-0.48549 0.70282,0.70281 -1.80379,8.05867 -4.92288,14.44663 -5.10744,10.46015 -10.28675,14.37853 -25.78503,19.50755 -6.68751,2.21316 -8.29637,3.04323 -10.38991,5.36054 -3.48093,3.85296 -4.67826,8.50005 -4.67826,18.15728 0,4.43327 0.29185,8.00338 0.65427,8.00338 0.35984,0 2.78143,-3.24654 5.38129,-7.21453 5.78148,-8.82387 10.88602,-14.00468 21.74849,-22.07341 10.97195,-8.15005 18.88393,-12.75695 31.10656,-18.11234 29.72153,-13.02263 44.16892,-21.7732 61.59283,-37.3059 32.89464,-29.32421 55.06044,-68.68279 60.2146,-106.91975 1.18496,-8.79088 1.35016,-32.47284 0.28574,-40.9618 -1.1662,-9.30058 -1.54088,-9.84679 -10.28942,-14.99998 -10.42099,-6.13831 -17.53107,-13.19019 -21.42583,-21.25047 -3.37205,-6.97852 -4.45043,-12.89757 -4.16255,-22.84758 l 0.20447,-7.06685 2.82842,0.0639 c 3.68749,0.0834 12.73645,3.76506 17.94157,7.2998 7.88349,5.35357 13.64404,13.4286 15.65168,21.94023 0.62844,2.66436 0.77961,6.68852 0.49141,13.08148 -0.38186,8.47078 -0.28628,9.5503 1.1573,13.07116 0.86545,2.11081 1.9159,3.95194 2.33431,4.09141 0.43105,0.14368 1.58037,-2.70078 2.65179,-6.56293 1.04005,-3.74909 2.55183,-8.11183 3.35948,-9.69497 2.44287,-4.7884 8.16939,-9.8851 14.76625,-13.14219 6.88532,-3.39952 15.03775,-5.44983 15.41437,-3.87667 0.12598,0.52623 -0.10995,4.37641 -0.5243,8.55596 -0.62972,6.35218 -1.1605,8.42772 -3.23459,12.64826 -4.87909,9.92837 -13.54431,16.46249 -28.74022,21.67193 -1.00412,0.34423 -1.22009,2.44005 -1.63116,15.82926 -0.26058,8.48787 -0.77391,17.76245 -1.14073,20.61018 -1.32704,10.30222 -0.76188,10.87987 3.54756,3.62602 5.24832,-8.83423 9.6648,-12.74068 17.91488,-15.846 4.28638,-1.6134 14.69677,-4.09696 15.17378,-3.61995 0.55719,0.55718 -1.97294,10.33815 -3.65866,14.14367 -4.71756,10.64995 -13.25466,16.45129 -30.89076,20.9917 l -6.0851,1.5666 -1.59574,5.01136 c -9.60802,30.17358 -27.67579,59.82253 -50.22723,82.42217 -15.33337,15.36614 -30.37771,26.13529 -49.85103,35.68474 -6.61145,3.24217 -18.22568,8.943 -25.8094,12.66852 -19.43661,9.54828 -28.2048,16.43461 -40.88654,32.1113 -3.23088,3.99389 -6.67667,7.78734 -7.65731,8.42988 -1.91173,1.25262 -6.55662,2.13756 -9.4389,1.79831 z"
       id="path42"
       transform="scale(0.26458333)" />
  </g>
</svg>
